<?xml version="1.0" standalone="no"?>
<!DOCTYPE svg PUBLIC "-//W3C//DTD SVG 20010904//EN"
 "http://www.w3.org/TR/2001/REC-SVG-20010904/DTD/svg10.dtd">
<svg version="1.0" xmlns="http://www.w3.org/2000/svg"
 width="512.000000pt" height="512.000000pt" viewBox="0 0 512.000000 512.000000"
 preserveAspectRatio="xMidYMid meet">
<metadata>
Created by potrace 1.11, written by Peter Selinger 2001-2013
</metadata>
<g transform="translate(0.000000,512.000000) scale(0.100000,-0.100000)"
fill="#000000" stroke="none">
<path d="M0 2560 l0 -2560 2560 0 2560 0 0 2560 0 2560 -2560 0 -2560 0 0
-2560z m4454 1855 c75 -20 130 -53 187 -112 59 -62 85 -105 104 -178 52 -201
-45 -398 -241 -487 -40 -18 -68 -22 -154 -22 -100 -1 -109 1 -175 33 -274 135
-316 503 -80 691 102 82 230 108 359 75z m-2039 -15 c490 -42 864 -203 1150
-497 284 -292 462 -731 494 -1218 15 -231 -20 -503 -95 -751 -255 -845 -890
-1283 -1814 -1251 -346 12 -608 74 -863 204 -485 248 -795 723 -904 1388 -13
82 -18 165 -17 325 0 229 13 344 59 530 155 622 607 1049 1286 1213 246 60
461 77 704 57z"/>
<path d="M2029 3830 c-467 -74 -794 -365 -914 -811 -77 -288 -76 -679 1 -947
49 -169 133 -331 227 -436 l44 -50 22 95 c82 359 376 633 794 744 202 53 252
58 725 62 l442 5 0 82 c0 234 -66 505 -172 708 -151 288 -397 468 -730 533
-97 19 -358 28 -439 15z"/>
<path d="M2872 2059 c-375 -33 -626 -134 -732 -292 -54 -80 -66 -145 -46 -244
25 -122 65 -186 137 -219 37 -16 51 -17 152 -6 193 19 341 70 485 166 86 57
197 167 251 246 l41 62 0 149 0 149 -97 -1 c-54 -1 -140 -5 -191 -10z"/>
</g>
</svg>
